<svg xmlns="http://www.w3.org/2000/svg" viewBox="0 0 400 400" fill="none">
  <g id="edit-icon">
    <path id="paper" fill-rule="evenodd" clip-rule="evenodd" d="M278 50L100 50C72.3858 50 50 72.3858 50 100V300C50 327.614 72.3858 350 100 350H300C327.614 350 350 327.614 350 300V119.421L325 144.421V300C325 313.807 313.807 325 300 325H100C86.1929 325 75 313.807 75 300V100C75 86.1929 86.1929 75 100 75H253L278 50Z" fill="black"/>
    <g id="pen">
      <mask id="path-2-inside-1" fill="white">
        <path d="M327.843 14.1575C335.653 6.34701 348.332 6.33165 356.142 14.1421L384.426 42.4264C392.237 50.2369 392.237 62.9002 384.426 70.7107L224.706 230.431L160.28 255.112L159.964 255.186C151.421 257.186 143.643 249.74 145.27 241.117V241.117C145.377 240.548 145.525 239.987 145.712 239.439L168.138 173.862C231.17 110.83 268.494 73.5059 327.843 14.1575Z"/>
      </mask>
      <path d="M162.834 179.166L219.403 235.734L230.009 225.128L173.441 168.559L162.834 179.166ZM307.917 42.421L355.293 89.7971L365.9 79.1905L318.523 31.8144L307.917 42.421ZM344.378 100.712L297.002 53.3361L286.395 63.9427L333.771 111.319L344.378 100.712ZM224.706 230.431L230.072 244.438L233.054 243.296L235.313 241.038L224.706 230.431ZM168.138 173.862L157.531 163.256L155.07 165.716L153.945 169.009L168.138 173.862ZM160.28 255.112L163.699 269.717L164.693 269.484L165.646 269.119L160.28 255.112ZM159.964 255.186L156.545 240.58L159.964 255.186ZM145.712 239.439L159.905 244.293L145.712 239.439ZM345.536 24.7487L373.82 53.033L395.033 31.8198L366.749 3.53553L345.536 24.7487ZM373.82 60.1041L214.1 219.824L235.313 241.038L395.033 81.3173L373.82 60.1041ZM178.744 184.469C178.867 184.346 178.99 184.223 179.113 184.1C179.236 183.977 179.359 183.854 179.482 183.732C179.604 183.609 179.727 183.486 179.85 183.364C179.972 183.241 180.095 183.119 180.217 182.996C180.339 182.874 180.461 182.752 180.584 182.63C180.706 182.508 180.828 182.385 180.95 182.264C181.072 182.142 181.193 182.02 181.315 181.898C181.437 181.776 181.559 181.655 181.68 181.533C181.802 181.411 181.923 181.29 182.045 181.169C182.166 181.047 182.287 180.926 182.408 180.805C182.53 180.684 182.651 180.562 182.772 180.441C182.893 180.32 183.014 180.2 183.134 180.079C183.255 179.958 183.376 179.837 183.497 179.717C183.617 179.596 183.738 179.475 183.858 179.355C183.979 179.235 184.099 179.114 184.219 178.994C184.339 178.874 184.46 178.754 184.58 178.634C184.7 178.514 184.82 178.394 184.94 178.274C185.059 178.154 185.179 178.034 185.299 177.914C185.419 177.795 185.538 177.675 185.658 177.555C185.777 177.436 185.897 177.317 186.016 177.197C186.135 177.078 186.255 176.959 186.374 176.84C186.493 176.72 186.612 176.601 186.731 176.482C186.85 176.363 186.969 176.244 187.088 176.126C187.206 176.007 187.325 175.888 187.444 175.77C187.562 175.651 187.681 175.532 187.799 175.414C187.918 175.296 188.036 175.177 188.154 175.059C188.272 174.941 188.391 174.823 188.509 174.705C188.627 174.586 188.745 174.468 188.863 174.351C188.981 174.233 189.098 174.115 189.216 173.997C189.334 173.879 189.451 173.762 189.569 173.644C189.686 173.527 189.804 173.409 189.921 173.292C190.039 173.175 190.156 173.057 190.273 172.94C190.39 172.823 190.507 172.706 190.625 172.589C190.742 172.472 190.858 172.355 190.975 172.238C191.092 172.121 191.209 172.004 191.326 171.888C191.442 171.771 191.559 171.654 191.675 171.538C191.792 171.421 191.908 171.305 192.025 171.189C192.141 171.072 192.257 170.956 192.373 170.84C192.49 170.724 192.606 170.607 192.722 170.491C192.838 170.375 192.954 170.26 193.069 170.144C193.185 170.028 193.301 169.912 193.417 169.796C193.532 169.681 193.648 169.565 193.763 169.45C193.879 169.334 193.994 169.219 194.11 169.103C194.225 168.988 194.34 168.873 194.455 168.758C194.571 168.643 194.686 168.527 194.801 168.412C194.916 168.297 195.031 168.183 195.145 168.068C195.26 167.953 195.375 167.838 195.49 167.723C195.604 167.609 195.719 167.494 195.834 167.38C195.948 167.265 196.063 167.151 196.177 167.036C196.291 166.922 196.405 166.808 196.52 166.694C196.634 166.579 196.748 166.465 196.862 166.351C196.976 166.237 197.09 166.123 197.204 166.009C197.318 165.895 197.432 165.782 197.545 165.668C197.659 165.554 197.773 165.441 197.886 165.327C198 165.213 198.113 165.1 198.227 164.987C198.34 164.873 198.453 164.76 198.567 164.647C198.68 164.533 198.793 164.42 198.906 164.307C199.019 164.194 199.132 164.081 199.245 163.968C199.358 163.855 199.471 163.742 199.584 163.63C199.696 163.517 199.809 163.404 199.922 163.291C200.034 163.179 200.147 163.066 200.259 162.954C200.372 162.841 200.484 162.729 200.597 162.617C200.709 162.504 200.821 162.392 200.933 162.28C201.045 162.168 201.158 162.056 201.27 161.944C201.382 161.832 201.493 161.72 201.605 161.608C201.717 161.496 201.829 161.384 201.941 161.272C202.052 161.161 202.164 161.049 202.276 160.938C202.387 160.826 202.499 160.715 202.61 160.603C202.722 160.492 202.833 160.38 202.944 160.269C203.055 160.158 203.167 160.047 203.278 159.935C203.389 159.824 203.5 159.713 203.611 159.602C203.722 159.491 203.833 159.38 203.944 159.27C204.054 159.159 204.165 159.048 204.276 158.937C204.387 158.827 204.497 158.716 204.608 158.605C204.718 158.495 204.829 158.384 204.939 158.274C205.05 158.164 205.16 158.053 205.27 157.943C205.38 157.833 205.491 157.723 205.601 157.613C205.711 157.502 205.821 157.392 205.931 157.282C206.041 157.172 206.151 157.063 206.261 156.953C206.37 156.843 206.48 156.733 206.59 156.623C206.7 156.514 206.809 156.404 206.919 156.295C207.028 156.185 207.138 156.075 207.247 155.966C207.357 155.857 207.466 155.747 207.575 155.638C207.684 155.529 207.794 155.419 207.903 155.31C208.012 155.201 208.121 155.092 208.23 154.983C208.339 154.874 208.448 154.765 208.557 154.656C208.666 154.547 208.775 154.439 208.883 154.33C208.992 154.221 209.101 154.112 209.209 154.004C209.318 153.895 209.426 153.787 209.535 153.678C209.643 153.57 209.752 153.461 209.86 153.353C209.968 153.245 210.077 153.136 210.185 153.028C210.293 152.92 210.401 152.812 210.509 152.704C210.617 152.596 210.725 152.488 210.833 152.38C210.941 152.272 211.049 152.164 211.157 152.056C211.265 151.948 211.373 151.841 211.48 151.733C211.588 151.625 211.696 151.518 211.803 151.41C211.911 151.302 212.018 151.195 212.126 151.088C212.233 150.98 212.34 150.873 212.448 150.765C212.555 150.658 212.662 150.551 212.769 150.444C212.877 150.337 212.984 150.229 213.091 150.122C213.198 150.015 213.305 149.908 213.412 149.801C213.519 149.694 213.626 149.588 213.732 149.481C213.839 149.374 213.946 149.267 214.053 149.161C214.159 149.054 214.266 148.947 214.372 148.841C214.479 148.734 214.586 148.628 214.692 148.521C214.798 148.415 214.905 148.308 215.011 148.202C215.117 148.096 215.224 147.99 215.33 147.883C215.436 147.777 215.542 147.671 215.648 147.565C215.754 147.459 215.86 147.353 215.966 147.247C216.072 147.141 216.178 147.035 216.284 146.929C216.39 146.823 216.496 146.718 216.601 146.612C216.707 146.506 216.813 146.4 216.918 146.295C217.024 146.189 217.129 146.084 217.235 145.978C217.34 145.873 217.446 145.767 217.551 145.662C217.657 145.557 217.762 145.451 217.867 145.346C217.972 145.241 218.078 145.136 218.183 145.03C218.288 144.925 218.393 144.82 218.498 144.715C218.603 144.61 218.708 144.505 218.813 144.4C218.918 144.295 219.023 144.19 219.128 144.086C219.232 143.981 219.337 143.876 219.442 143.771C219.547 143.667 219.651 143.562 219.756 143.457C219.86 143.353 219.965 143.248 220.069 143.144C220.174 143.039 220.278 142.935 220.383 142.831C220.487 142.726 220.591 142.622 220.696 142.518C220.8 142.413 220.904 142.309 221.008 142.205C221.112 142.101 221.216 141.997 221.32 141.893C221.424 141.789 221.528 141.685 221.632 141.581C221.736 141.477 221.84 141.373 221.944 141.269C222.048 141.165 222.152 141.062 222.255 140.958C222.359 140.854 222.463 140.75 222.566 140.647C222.67 140.543 222.774 140.44 222.877 140.336C222.981 140.233 223.084 140.129 223.188 140.026C223.291 139.922 223.394 139.819 223.498 139.716C223.601 139.612 223.704 139.509 223.807 139.406C223.911 139.303 224.014 139.199 224.117 139.096C224.22 138.993 224.323 138.89 224.426 138.787C224.529 138.684 224.632 138.581 224.735 138.478C224.838 138.375 224.941 138.272 225.044 138.17C225.146 138.067 225.249 137.964 225.352 137.861C225.455 137.759 225.557 137.656 225.66 137.553C225.763 137.451 225.865 137.348 225.968 137.246C226.07 137.143 226.173 137.041 226.275 136.938C226.377 136.836 226.48 136.733 226.582 136.631C226.685 136.529 226.787 136.426 226.889 136.324C226.991 136.222 227.093 136.12 227.196 136.018C227.298 135.915 227.4 135.813 227.502 135.711C227.604 135.609 227.706 135.507 227.808 135.405C227.91 135.303 228.012 135.201 228.114 135.099C228.216 134.998 228.317 134.896 228.419 134.794C228.521 134.692 228.623 134.59 228.724 134.489C228.826 134.387 228.928 134.285 229.029 134.184C229.131 134.082 229.233 133.981 229.334 133.879C229.436 133.778 229.537 133.676 229.638 133.575C229.74 133.473 229.841 133.372 229.943 133.271C230.044 133.169 230.145 133.068 230.246 132.967C230.348 132.865 230.449 132.764 230.55 132.663C230.651 132.562 230.752 132.461 230.853 132.36C230.955 132.259 231.056 132.158 231.157 132.057C231.258 131.956 231.359 131.855 231.459 131.754C231.56 131.653 231.661 131.552 231.762 131.451C231.863 131.35 231.964 131.25 232.064 131.149C232.165 131.048 232.266 130.947 232.367 130.847C232.467 130.746 232.568 130.645 232.668 130.545C232.769 130.444 232.87 130.344 232.97 130.243C233.071 130.143 233.171 130.042 233.272 129.942C233.372 129.841 233.472 129.741 233.573 129.641C233.673 129.54 233.773 129.44 233.874 129.34C233.974 129.239 234.074 129.139 234.174 129.039C234.275 128.939 234.375 128.839 234.475 128.738C234.575 128.638 234.675 128.538 234.775 128.438C234.875 128.338 234.975 128.238 235.075 128.138C235.175 128.038 235.275 127.938 235.375 127.838C235.475 127.738 235.575 127.639 235.674 127.539C235.774 127.439 235.874 127.339 235.974 127.239C236.074 127.14 236.173 127.04 236.273 126.94C236.373 126.841 236.472 126.741 236.572 126.641C236.671 126.542 236.771 126.442 236.871 126.343C236.97 126.243 237.07 126.144 237.169 126.044C237.269 125.945 237.368 125.845 237.467 125.746C237.567 125.646 237.666 125.547 237.765 125.448C237.865 125.348 237.964 125.249 238.063 125.15C238.163 125.051 238.262 124.951 238.361 124.852C238.46 124.753 238.559 124.654 238.658 124.555C238.758 124.456 238.857 124.356 238.956 124.257C239.055 124.158 239.154 124.059 239.253 123.96C239.352 123.861 239.451 123.762 239.55 123.663C239.649 123.565 239.748 123.466 239.846 123.367C239.945 123.268 240.044 123.169 240.143 123.07C240.242 122.971 240.341 122.873 240.439 122.774C240.538 122.675 240.637 122.576 240.735 122.478C240.834 122.379 240.933 122.28 241.031 122.182C241.13 122.083 241.229 121.985 241.327 121.886C241.426 121.787 241.524 121.689 241.623 121.59C241.721 121.492 241.82 121.393 241.918 121.295C242.017 121.197 242.115 121.098 242.213 121C242.312 120.901 242.41 120.803 242.508 120.705C242.607 120.606 242.705 120.508 242.803 120.41C242.902 120.312 243 120.213 243.098 120.115C243.196 120.017 243.295 119.919 243.393 119.821C243.491 119.722 243.589 119.624 243.687 119.526C243.785 119.428 243.883 119.33 243.981 119.232C244.079 119.134 244.177 119.036 244.275 118.938C244.373 118.84 244.471 118.742 244.569 118.644C244.667 118.546 244.765 118.448 244.863 118.35C244.961 118.252 245.059 118.154 245.157 118.056C245.255 117.959 245.352 117.861 245.45 117.763C245.548 117.665 245.646 117.567 245.744 117.47C245.841 117.372 245.939 117.274 246.037 117.177C246.134 117.079 246.232 116.981 246.33 116.883C246.427 116.786 246.525 116.688 246.623 116.591C246.72 116.493 246.818 116.395 246.915 116.298C247.013 116.2 247.11 116.103 247.208 116.005C247.305 115.908 247.403 115.81 247.5 115.713C247.598 115.615 247.695 115.518 247.793 115.42C247.89 115.323 247.988 115.226 248.085 115.128C248.182 115.031 248.28 114.933 248.377 114.836C248.474 114.739 248.572 114.642 248.669 114.544C248.766 114.447 248.864 114.35 248.961 114.252C249.058 114.155 249.155 114.058 249.253 113.961C249.35 113.863 249.447 113.766 249.544 113.669C249.641 113.572 249.738 113.475 249.836 113.378C249.933 113.281 250.03 113.183 250.127 113.086C250.224 112.989 250.321 112.892 250.418 112.795C250.515 112.698 250.612 112.601 250.709 112.504C250.806 112.407 250.903 112.31 251 112.213C251.097 112.116 251.194 112.019 251.291 111.922C251.388 111.825 251.485 111.728 251.582 111.631C251.679 111.534 251.776 111.437 251.873 111.341C251.969 111.244 252.066 111.147 252.163 111.05C252.26 110.953 252.357 110.856 252.454 110.76C252.55 110.663 252.647 110.566 252.744 110.469C252.841 110.372 252.938 110.276 253.034 110.179C253.131 110.082 253.228 109.985 253.325 109.889C253.421 109.792 253.518 109.695 253.615 109.599C253.711 109.502 253.808 109.405 253.905 109.309C254.001 109.212 254.098 109.115 254.195 109.019C254.291 108.922 254.388 108.825 254.484 108.729C254.581 108.632 254.678 108.536 254.774 108.439C254.871 108.342 254.967 108.246 255.064 108.149C255.16 108.053 255.257 107.956 255.353 107.86C255.45 107.763 255.547 107.667 255.643 107.57C255.74 107.474 255.836 107.377 255.932 107.281C256.029 107.184 256.125 107.088 256.222 106.991C256.318 106.895 256.415 106.798 256.511 106.702C256.608 106.606 256.704 106.509 256.8 106.413C256.897 106.316 256.993 106.22 257.09 106.124C257.186 106.027 257.282 105.931 257.379 105.835C257.475 105.738 257.571 105.642 257.668 105.545C257.764 105.449 257.86 105.353 257.957 105.256C258.053 105.16 258.149 105.064 258.246 104.968C258.342 104.871 258.438 104.775 258.535 104.679C258.631 104.582 258.727 104.486 258.823 104.39C258.92 104.294 259.016 104.197 259.112 104.101C259.208 104.005 259.305 103.909 259.401 103.812C259.497 103.716 259.593 103.62 259.69 103.524C259.786 103.427 259.882 103.331 259.978 103.235C260.074 103.139 260.171 103.043 260.267 102.946C260.363 102.85 260.459 102.754 260.555 102.658C260.652 102.562 260.748 102.466 260.844 102.369C260.94 102.273 261.036 102.177 261.132 102.081C261.229 101.985 261.325 101.889 261.421 101.792C261.517 101.696 261.613 101.6 261.709 101.504C261.805 101.408 261.901 101.312 261.998 101.216C262.094 101.119 262.19 101.023 262.286 100.927C262.382 100.831 262.478 100.735 262.574 100.639C262.67 100.543 262.767 100.447 262.863 100.351C262.959 100.254 263.055 100.158 263.151 100.062C263.247 99.9662 263.343 99.8701 263.439 99.774C263.535 99.6779 263.631 99.5819 263.727 99.4858C263.824 99.3897 263.92 99.2936 264.016 99.1975C264.112 99.1014 264.208 99.0054 264.304 98.9093C264.4 98.8132 264.496 98.7171 264.592 98.6211C264.688 98.525 264.784 98.4289 264.88 98.3329C264.976 98.2368 265.072 98.1407 265.169 98.0447C265.265 97.9486 265.361 97.8525 265.457 97.7565C265.553 97.6604 265.649 97.5643 265.745 97.4683C265.841 97.3722 265.937 97.2761 266.033 97.1801C266.129 97.084 266.225 96.9879 266.321 96.8919C266.417 96.7958 266.513 96.6997 266.61 96.6036C266.706 96.5076 266.802 96.4115 266.898 96.3154C266.994 96.2194 267.09 96.1233 267.186 96.0272C267.282 95.9311 267.378 95.8351 267.474 95.739C267.57 95.6429 267.666 95.5468 267.762 95.4507C267.859 95.3546 267.955 95.2585 268.051 95.1625C268.147 95.0664 268.243 94.9703 268.339 94.8742C268.435 94.7781 268.531 94.682 268.627 94.5859C268.723 94.4898 268.82 94.3937 268.916 94.2976C269.012 94.2014 269.108 94.1053 269.204 94.0092C269.3 93.9131 269.396 93.817 269.492 93.7208C269.589 93.6247 269.685 93.5286 269.781 93.4324C269.877 93.3363 269.973 93.2401 270.069 93.144C270.165 93.0478 270.262 92.9517 270.358 92.8555C270.454 92.7594 270.55 92.6632 270.646 92.567C270.742 92.4709 270.839 92.3747 270.935 92.2785C271.031 92.1823 271.127 92.0861 271.223 91.9899C271.319 91.8937 271.416 91.7975 271.512 91.7013C271.608 91.6051 271.704 91.5089 271.801 91.4126C271.897 91.3164 271.993 91.2202 272.089 91.1239C272.186 91.0277 272.282 90.9315 272.378 90.8352C272.474 90.7389 272.571 90.6427 272.667 90.5464C272.763 90.4501 272.859 90.3538 272.956 90.2575C273.052 90.1612 273.148 90.0649 273.245 89.9686C273.341 89.8723 273.437 89.776 273.534 89.6797C273.63 89.5833 273.726 89.487 273.823 89.3906C273.919 89.2943 274.015 89.1979 274.112 89.1016C274.208 89.0052 274.304 88.9088 274.401 88.8124C274.497 88.716 274.594 88.6196 274.69 88.5232C274.786 88.4268 274.883 88.3304 274.979 88.2339C275.076 88.1375 275.172 88.0411 275.269 87.9446C275.365 87.8481 275.462 87.7517 275.558 87.6552C275.655 87.5587 275.751 87.4622 275.848 87.3657C275.944 87.2692 276.041 87.1727 276.137 87.0761C276.234 86.9796 276.33 86.883 276.427 86.7865C276.523 86.6899 276.62 86.5934 276.716 86.4968C276.813 86.4002 276.91 86.3036 277.006 86.207C277.103 86.1104 277.199 86.0137 277.296 85.9171C277.393 85.8204 277.489 85.7238 277.586 85.6271C277.683 85.5304 277.779 85.4338 277.876 85.337C277.973 85.2403 278.07 85.1436 278.166 85.0469C278.263 84.9502 278.36 84.8534 278.457 84.7567C278.553 84.6599 278.65 84.5631 278.747 84.4663C278.844 84.3695 278.94 84.2727 279.037 84.1759C279.134 84.0791 279.231 83.9822 279.328 83.8854C279.425 83.7885 279.522 83.6916 279.618 83.5947C279.715 83.4978 279.812 83.4009 279.909 83.304C280.006 83.2071 280.103 83.1101 280.2 83.0132C280.297 82.9162 280.394 82.8192 280.491 82.7222C280.588 82.6252 280.685 82.5282 280.782 82.4311C280.879 82.3341 280.976 82.2371 281.073 82.14C281.17 82.0429 281.267 81.9458 281.365 81.8487C281.462 81.7516 281.559 81.6545 281.656 81.5573C281.753 81.4601 281.85 81.363 281.947 81.2658C282.045 81.1686 282.142 81.0714 282.239 80.9742C282.336 80.8769 282.434 80.7797 282.531 80.6824C282.628 80.5851 282.725 80.4878 282.823 80.3905C282.92 80.2932 283.017 80.1959 283.115 80.0985C283.212 80.0011 283.309 79.9038 283.407 79.8064C283.504 79.709 283.602 79.6115 283.699 79.5141C283.797 79.4167 283.894 79.3192 283.992 79.2217C284.089 79.1242 284.187 79.0267 284.284 78.9292C284.382 78.8316 284.479 78.7341 284.577 78.6365C284.674 78.5389 284.772 78.4413 284.87 78.3437C284.967 78.2461 285.065 78.1484 285.162 78.0507C285.26 77.9531 285.358 77.8554 285.456 77.7576C285.553 77.6599 285.651 77.5622 285.749 77.4644C285.847 77.3666 285.944 77.2688 286.042 77.171C286.14 77.0732 286.238 76.9753 286.336 76.8775C286.434 76.7796 286.532 76.6817 286.629 76.5838C286.727 76.4858 286.825 76.3879 286.923 76.2899C287.021 76.192 287.119 76.094 287.217 75.9959C287.315 75.8979 287.413 75.7998 287.511 75.7018C287.61 75.6037 287.708 75.5056 287.806 75.4074C287.904 75.3093 288.002 75.2111 288.1 75.113C288.198 75.0148 288.297 74.9166 288.395 74.8183C288.493 74.7201 288.591 74.6218 288.69 74.5235C288.788 74.4252 288.886 74.3269 288.985 74.2285C289.083 74.1302 289.181 74.0318 289.28 73.9334C289.378 73.8349 289.477 73.7365 289.575 73.638C289.674 73.5396 289.772 73.4411 289.871 73.3425C289.969 73.244 290.068 73.1454 290.166 73.0468C290.265 72.9483 290.364 72.8496 290.462 72.751C290.561 72.6523 290.66 72.5536 290.758 72.4549C290.857 72.3562 290.956 72.2575 291.054 72.1587C291.153 72.0599 291.252 71.9611 291.351 71.8623C291.45 71.7635 291.549 71.6646 291.648 71.5657C291.746 71.4668 291.845 71.3679 291.944 71.2689C292.043 71.1699 292.142 71.0709 292.241 70.9719C292.34 70.8729 292.439 70.7738 292.538 70.6747C292.638 70.5756 292.737 70.4765 292.836 70.3774C292.935 70.2782 293.034 70.179 293.133 70.0798C293.233 69.9806 293.332 69.8813 293.431 69.782C293.53 69.6827 293.63 69.5834 293.729 69.484C293.829 69.3847 293.928 69.2853 294.027 69.1858C294.127 69.0864 294.226 68.9869 294.326 68.8874C294.425 68.7879 294.525 68.6884 294.624 68.5888C294.724 68.4893 294.824 68.3897 294.923 68.29C295.023 68.1904 295.122 68.0907 295.222 67.991C295.322 67.8913 295.422 67.7915 295.521 67.6918C295.621 67.592 295.721 67.4922 295.821 67.3923C295.921 67.2924 296.021 67.1925 296.121 67.0926C296.221 66.9927 296.32 66.8927 296.42 66.7927C296.52 66.6927 296.621 66.5927 296.721 66.4926C296.821 66.3925 296.921 66.2924 297.021 66.1922C297.121 66.0921 297.221 65.9919 297.322 65.8916C297.422 65.7914 297.522 65.6911 297.622 65.5908C297.723 65.4905 297.823 65.3902 297.923 65.2898C298.024 65.1894 298.124 65.089 298.225 64.9885C298.325 64.888 298.426 64.7875 298.526 64.687C298.627 64.5864 298.727 64.4858 298.828 64.3852C298.929 64.2846 299.029 64.1839 299.13 64.0832C299.231 63.9825 299.331 63.8817 299.432 63.781C299.533 63.6802 299.634 63.5793 299.735 63.4785C299.836 63.3776 299.937 63.2767 300.037 63.1757C300.138 63.0748 300.239 62.9738 300.34 62.8727C300.442 62.7717 300.543 62.6706 300.644 62.5695C300.745 62.4684 300.846 62.3672 300.947 62.266C301.048 62.1648 301.15 62.0635 301.251 61.9622C301.352 61.8609 301.454 61.7596 301.555 61.6582C301.656 61.5568 301.758 61.4554 301.859 61.354C301.961 61.2525 302.062 61.151 302.164 61.0494C302.265 60.9479 302.367 60.8463 302.469 60.7446C302.57 60.643 302.672 60.5413 302.774 60.4395C302.875 60.3378 302.977 60.236 303.079 60.1342C303.181 60.0324 303.283 59.9305 303.385 59.8286C303.487 59.7267 303.588 59.6247 303.69 59.5227C303.792 59.4207 303.895 59.3187 303.997 59.2166C304.099 59.1145 304.201 59.0123 304.303 58.9101C304.405 58.8079 304.508 58.7057 304.61 58.6034C304.712 58.5011 304.814 58.3988 304.917 58.2964C305.019 58.194 305.122 58.0916 305.224 57.9891C305.327 57.8866 305.429 57.7841 305.532 57.6815C305.634 57.579 305.737 57.4764 305.84 57.3737C305.942 57.271 306.045 57.1683 306.148 57.0655C306.25 56.9628 306.353 56.86 306.456 56.7571C306.559 56.6542 306.662 56.5513 306.765 56.4484C306.868 56.3454 306.971 56.2424 307.074 56.1393C307.177 56.0363 307.28 55.9332 307.383 55.83C307.486 55.7268 307.59 55.6236 307.693 55.5204C307.796 55.4171 307.899 55.3138 308.003 55.2104C308.106 55.1071 308.21 55.0036 308.313 54.9002C308.416 54.7967 308.52 54.6932 308.624 54.5896C308.727 54.4861 308.831 54.3824 308.934 54.2788C309.038 54.1751 309.142 54.0714 309.246 53.9676C309.349 53.8638 309.453 53.76 309.557 53.6561C309.661 53.5522 309.765 53.4483 309.869 53.3443C309.973 53.2403 310.077 53.1363 310.181 53.0322C310.285 52.9281 310.389 52.8239 310.493 52.7197C310.598 52.6155 310.702 52.5113 310.806 52.407C310.911 52.3026 311.015 52.1983 311.119 52.0939C311.224 51.9894 311.328 51.885 311.433 51.7804C311.537 51.6759 311.642 51.5713 311.747 51.4667C311.851 51.3621 311.956 51.2574 312.061 51.1526C312.165 51.0479 312.27 50.9431 312.375 50.8382C312.48 50.7334 312.585 50.6284 312.69 50.5235C312.795 50.4185 312.9 50.3135 313.005 50.2084C313.11 50.1033 313.215 49.9982 313.32 49.893C313.425 49.7878 313.531 49.6825 313.636 49.5772C313.741 49.4719 313.847 49.3665 313.952 49.2611C314.058 49.1556 314.163 49.0502 314.269 48.9446C314.374 48.8391 314.48 48.7335 314.585 48.6278C314.691 48.5222 314.797 48.4164 314.903 48.3107C315.008 48.2049 315.114 48.099 315.22 47.9931C315.326 47.8873 315.432 47.7813 315.538 47.6753C315.644 47.5693 315.75 47.4632 315.856 47.3571C315.962 47.2509 316.068 47.1447 316.175 47.0385C316.281 46.9322 316.387 46.8259 316.494 46.7195C316.6 46.6132 316.706 46.5067 316.813 46.4002C316.919 46.2937 317.026 46.1872 317.133 46.0806C317.239 45.974 317.346 45.8673 317.453 45.7605C317.559 45.6538 317.666 45.547 317.773 45.4401C317.88 45.3333 317.987 45.2263 318.094 45.1194C318.201 45.0124 318.308 44.9053 318.415 44.7982C318.522 44.6911 318.629 44.5839 318.737 44.4767C318.844 44.3694 318.951 44.2621 319.058 44.1548C319.166 44.0474 319.273 43.94 319.381 43.8325C319.488 43.725 319.596 43.6174 319.703 43.5098C319.811 43.4022 319.919 43.2945 320.026 43.1868C320.134 43.079 320.242 42.9712 320.35 42.8633C320.458 42.7554 320.566 42.6475 320.674 42.5395C320.782 42.4315 320.89 42.3234 320.998 42.2153C321.106 42.1071 321.214 41.9989 321.323 41.8907C321.431 41.7824 321.539 41.6741 321.648 41.5657C321.756 41.4572 321.864 41.3488 321.973 41.2402C322.081 41.1317 322.19 41.0231 322.299 40.9144C322.407 40.8058 322.516 40.697 322.625 40.5882C322.734 40.4794 322.843 40.3706 322.952 40.2616C323.061 40.1527 323.17 40.0437 323.279 39.9346C323.388 39.8255 323.497 39.7164 323.606 39.6072C323.715 39.498 323.825 39.3887 323.934 39.2793C324.043 39.17 324.153 39.0606 324.262 38.9511C324.372 38.8416 324.481 38.7321 324.591 38.6224C324.7 38.5128 324.81 38.4031 324.92 38.2934C325.03 38.1836 325.139 38.0738 325.249 37.9639C325.359 37.854 325.469 37.744 325.579 37.6339C325.689 37.5239 325.799 37.4138 325.91 37.3036C326.02 37.1934 326.13 37.0832 326.24 36.9728C326.351 36.8625 326.461 36.7521 326.572 36.6416C326.682 36.5312 326.793 36.4206 326.903 36.31C327.014 36.1994 327.124 36.0887 327.235 35.978C327.346 35.8672 327.457 35.7564 327.568 35.6455C327.679 35.5346 327.79 35.4236 327.901 35.3126C328.012 35.2015 328.123 35.0904 328.234 34.9792C328.345 34.868 328.456 34.7567 328.568 34.6454C328.679 34.534 328.791 34.4226 328.902 34.3111C329.014 34.1997 329.125 34.0881 329.237 33.9765C329.348 33.8648 329.46 33.7531 329.572 33.6413C329.684 33.5295 329.796 33.4177 329.907 33.3057C330.019 33.1938 330.131 33.0818 330.244 32.9697C330.356 32.8576 330.468 32.7455 330.58 32.6332C330.692 32.521 330.805 32.4087 330.917 32.2963C331.029 32.1839 331.142 32.0714 331.254 31.9589C331.367 31.8463 331.479 31.7337 331.592 31.621C331.705 31.5083 331.818 31.3955 331.931 31.2827C332.043 31.1698 332.156 31.0569 332.269 30.9439C332.382 30.8309 332.495 30.7178 332.609 30.6047C332.722 30.4915 332.835 30.3783 332.948 30.2649C333.062 30.1516 333.175 30.0382 333.288 29.9248C333.402 29.8113 333.515 29.6977 333.629 29.5841C333.743 29.4705 333.856 29.3568 333.97 29.243C334.084 29.1292 334.198 29.0153 334.312 28.9014C334.426 28.7874 334.54 28.6734 334.654 28.5593C334.768 28.4452 334.882 28.331 334.997 28.2167C335.111 28.1024 335.225 27.9881 335.34 27.8736C335.454 27.7592 335.569 27.6447 335.683 27.5301C335.798 27.4155 335.912 27.3008 336.027 27.1861C336.142 27.0713 336.257 26.9565 336.372 26.8416C336.487 26.7266 336.602 26.6116 336.717 26.4966C336.832 26.3815 336.947 26.2663 337.062 26.1511C337.177 26.0358 337.293 25.9205 337.408 25.8051C337.524 25.6897 337.639 25.5742 337.755 25.4586C337.87 25.343 337.986 25.2273 338.102 25.1116C338.217 24.9958 338.333 24.88 338.449 24.7641L317.236 3.5509C317.12 3.66681 317.004 3.78264 316.888 3.89839C316.773 4.01414 316.657 4.1298 316.541 4.24538C316.426 4.36096 316.31 4.47646 316.195 4.59187C316.08 4.70729 315.964 4.82262 315.849 4.93786C315.734 5.05311 315.619 5.16828 315.503 5.28336C315.388 5.39845 315.273 5.51345 315.158 5.62837C315.044 5.74329 314.929 5.85812 314.814 5.97288C314.699 6.08764 314.584 6.20231 314.47 6.3169C314.355 6.4315 314.241 6.54601 314.126 6.66044C314.012 6.77487 313.898 6.88922 313.783 7.00349C313.669 7.11776 313.555 7.23195 313.441 7.34606C313.327 7.46017 313.213 7.5742 313.099 7.68815C312.985 7.8021 312.871 7.91597 312.757 8.02976C312.643 8.14355 312.53 8.25726 312.416 8.37089C312.302 8.48452 312.189 8.59808 312.075 8.71155C311.962 8.82503 311.848 8.93842 311.735 9.05174C311.622 9.16506 311.509 9.2783 311.395 9.39146C311.282 9.50462 311.169 9.6177 311.056 9.73071C310.943 9.84371 310.83 9.95664 310.717 10.0695C310.604 10.1823 310.492 10.2951 310.379 10.4078C310.266 10.5205 310.154 10.6331 310.041 10.7457C309.929 10.8582 309.816 10.9707 309.704 11.0831C309.591 11.1955 309.479 11.3078 309.367 11.42C309.255 11.5322 309.142 11.6444 309.03 11.7565C308.918 11.8686 308.806 11.9806 308.694 12.0925C308.582 12.2045 308.47 12.3163 308.359 12.4281C308.247 12.5399 308.135 12.6516 308.024 12.7633C307.912 12.8749 307.8 12.9865 307.689 13.0979C307.577 13.2094 307.466 13.3208 307.355 13.4322C307.243 13.5435 307.132 13.6548 307.021 13.766C306.91 13.8772 306.798 13.9883 306.687 14.0993C306.576 14.2104 306.465 14.3214 306.355 14.4323C306.244 14.5432 306.133 14.654 306.022 14.7648C305.911 14.8755 305.801 14.9862 305.69 15.0968C305.579 15.2074 305.469 15.318 305.358 15.4284C305.248 15.5389 305.137 15.6493 305.027 15.7596C304.917 15.87 304.807 15.9802 304.696 16.0904C304.586 16.2006 304.476 16.3107 304.366 16.4207C304.256 16.5308 304.146 16.6408 304.036 16.7507C303.926 16.8606 303.816 16.9704 303.707 17.0802C303.597 17.1899 303.487 17.2996 303.378 17.4092C303.268 17.5189 303.158 17.6284 303.049 17.7379C302.939 17.8474 302.83 17.9568 302.721 18.0661C302.611 18.1755 302.502 18.2848 302.393 18.394C302.284 18.5032 302.174 18.6123 302.065 18.7214C301.956 18.8305 301.847 18.9395 301.738 19.0484C301.629 19.1574 301.521 19.2662 301.412 19.375C301.303 19.4838 301.194 19.5926 301.086 19.7012C300.977 19.8099 300.868 19.9185 300.76 20.027C300.651 20.1356 300.543 20.244 300.434 20.3524C300.326 20.4608 300.218 20.5692 300.109 20.6775C300.001 20.7857 299.893 20.8939 299.785 21.0021C299.677 21.1102 299.569 21.2183 299.461 21.3263C299.352 21.4343 299.245 21.5422 299.137 21.6501C299.029 21.758 298.921 21.8658 298.813 21.9736C298.705 22.0813 298.598 22.189 298.49 22.2966C298.383 22.4042 298.275 22.5118 298.168 22.6193C298.06 22.7268 297.953 22.8342 297.845 22.9416C297.738 23.0489 297.631 23.1562 297.523 23.2635C297.416 23.3707 297.309 23.4779 297.202 23.585C297.095 23.6921 296.988 23.7992 296.881 23.9062C296.774 24.0131 296.667 24.1201 296.56 24.2269C296.453 24.3338 296.346 24.4406 296.239 24.5473C296.133 24.6541 296.026 24.7608 295.919 24.8674C295.813 24.974 295.706 25.0805 295.6 25.187C295.493 25.2935 295.387 25.4 295.28 25.5063C295.174 25.6127 295.068 25.719 294.962 25.8253C294.855 25.9315 294.749 26.0377 294.643 26.1439C294.537 26.25 294.431 26.3561 294.325 26.4621C294.219 26.5681 294.113 26.6741 294.007 26.7799C293.901 26.8858 293.795 26.9917 293.689 27.0975C293.584 27.2032 293.478 27.309 293.372 27.4146C293.267 27.5203 293.161 27.6259 293.055 27.7314C292.95 27.837 292.844 27.9424 292.739 28.0479C292.633 28.1533 292.528 28.2587 292.423 28.364C292.317 28.4693 292.212 28.5746 292.107 28.6798C292.002 28.7849 291.897 28.8901 291.792 28.9952C291.687 29.1003 291.582 29.2053 291.477 29.3103C291.372 29.4152 291.267 29.5201 291.162 29.625C291.057 29.7299 290.952 29.8347 290.847 29.9394C290.743 30.0442 290.638 30.1489 290.533 30.2535C290.429 30.3581 290.324 30.4627 290.22 30.5672C290.115 30.6718 290.011 30.7762 289.906 30.8807C289.802 30.9851 289.697 31.0894 289.593 31.1938C289.489 31.2981 289.384 31.4023 289.28 31.5065C289.176 31.6107 289.072 31.7149 288.968 31.819C288.864 31.9231 288.76 32.0271 288.656 32.1311C288.552 32.2351 288.448 32.339 288.344 32.4429C288.24 32.5468 288.136 32.6506 288.032 32.7544C287.929 32.8582 287.825 32.9619 287.721 33.0656C287.618 33.1692 287.514 33.2728 287.41 33.3764C287.307 33.48 287.203 33.5835 287.1 33.687C286.996 33.7904 286.893 33.8938 286.79 33.9972C286.686 34.1006 286.583 34.2039 286.48 34.3072C286.376 34.4104 286.273 34.5136 286.17 34.6168C286.067 34.7199 285.964 34.8231 285.861 34.9261C285.758 35.0292 285.655 35.1322 285.552 35.2352C285.449 35.3381 285.346 35.441 285.243 35.5439C285.14 35.6468 285.037 35.7496 284.934 35.8523C284.832 35.9551 284.729 36.0578 284.626 36.1605C284.524 36.2632 284.421 36.3658 284.318 36.4683C284.216 36.5709 284.113 36.6734 284.011 36.7759C283.908 36.8784 283.806 36.9808 283.704 37.0832C283.601 37.1856 283.499 37.2879 283.397 37.3902C283.294 37.4925 283.192 37.5947 283.09 37.6969C282.988 37.7991 282.886 37.9013 282.783 38.0033C282.681 38.1054 282.579 38.2075 282.477 38.3095C282.375 38.4115 282.273 38.5135 282.171 38.6154C282.069 38.7173 281.968 38.8192 281.866 38.921C281.764 39.0228 281.662 39.1246 281.56 39.2263C281.459 39.3281 281.357 39.4298 281.255 39.5314C281.154 39.6331 281.052 39.7347 280.951 39.8362C280.849 39.9378 280.748 40.0393 280.646 40.1407C280.545 40.2422 280.443 40.3436 280.342 40.445C280.24 40.5464 280.139 40.6477 280.038 40.749C279.936 40.8503 279.835 40.9516 279.734 41.0528C279.633 41.154 279.532 41.2552 279.431 41.3563C279.329 41.4574 279.228 41.5585 279.127 41.6595C279.026 41.7606 278.925 41.8616 278.824 41.9625C278.723 42.0635 278.622 42.1644 278.522 42.2653C278.421 42.3661 278.32 42.467 278.219 42.5678C278.118 42.6685 278.018 42.7693 277.917 42.87C277.816 42.9707 277.715 43.0714 277.615 43.172C277.514 43.2726 277.414 43.3732 277.313 43.4738C277.212 43.5743 277.112 43.6748 277.012 43.7753C276.911 43.8758 276.811 43.9762 276.71 44.0766C276.61 44.177 276.509 44.2773 276.409 44.3776C276.309 44.4779 276.209 44.5782 276.108 44.6784C276.008 44.7787 275.908 44.8789 275.808 44.979C275.708 45.0792 275.608 45.1793 275.507 45.2794C275.407 45.3795 275.307 45.4795 275.207 45.5795C275.107 45.6795 275.007 45.7795 274.907 45.8794C274.807 45.9793 274.708 46.0792 274.608 46.1791C274.508 46.279 274.408 46.3788 274.308 46.4786C274.208 46.5783 274.109 46.6781 274.009 46.7778C273.909 46.8775 273.81 46.9772 273.71 47.0768C273.61 47.1765 273.511 47.2761 273.411 47.3756C273.312 47.4752 273.212 47.5747 273.113 47.6742C273.013 47.7737 272.914 47.8732 272.814 47.9726C272.715 48.0721 272.615 48.1715 272.516 48.2708C272.417 48.3702 272.317 48.4695 272.218 48.5688C272.119 48.6681 272.019 48.7674 271.92 48.8666C271.821 48.9658 271.722 49.065 271.623 49.1642C271.523 49.2633 271.424 49.3624 271.325 49.4615C271.226 49.5606 271.127 49.6597 271.028 49.7587C270.929 49.8577 270.83 49.9567 270.731 50.0557C270.632 50.1547 270.533 50.2536 270.434 50.3525C270.335 50.4514 270.237 50.5503 270.138 50.6491C270.039 50.7479 269.94 50.8467 269.841 50.9455C269.743 51.0443 269.644 51.143 269.545 51.2417C269.446 51.3404 269.348 51.4391 269.249 51.5378C269.15 51.6364 269.052 51.735 268.953 51.8336C268.855 51.9322 268.756 52.0308 268.657 52.1293C268.559 52.2279 268.46 52.3264 268.362 52.4248C268.264 52.5233 268.165 52.6217 268.067 52.7202C267.968 52.8186 267.87 52.917 267.771 53.0153C267.673 53.1137 267.575 53.212 267.477 53.3103C267.378 53.4086 267.28 53.5069 267.182 53.6051C267.083 53.7034 266.985 53.8016 266.887 53.8998C266.789 53.9979 266.691 54.0961 266.593 54.1942C266.494 54.2924 266.396 54.3905 266.298 54.4886C266.2 54.5866 266.102 54.6847 266.004 54.7827C265.906 54.8807 265.808 54.9787 265.71 55.0767C265.612 55.1747 265.514 55.2726 265.416 55.3706C265.318 55.4685 265.22 55.5664 265.123 55.6643C265.025 55.7621 264.927 55.86 264.829 55.9578C264.731 56.0556 264.633 56.1534 264.536 56.2512C264.438 56.349 264.34 56.4467 264.242 56.5444C264.145 56.6422 264.047 56.7399 263.949 56.8375C263.852 56.9352 263.754 57.0329 263.656 57.1305C263.559 57.2281 263.461 57.3257 263.364 57.4233C263.266 57.5209 263.168 57.6184 263.071 57.716C262.973 57.8135 262.876 57.911 262.778 58.0085C262.681 58.106 262.583 58.2035 262.486 58.3009C262.388 58.3983 262.291 58.4958 262.194 58.5932C262.096 58.6906 261.999 58.7879 261.901 58.8853C261.804 58.9827 261.707 59.08 261.609 59.1773C261.512 59.2746 261.415 59.3719 261.318 59.4692C261.22 59.5665 261.123 59.6637 261.026 59.7609C260.929 59.8582 260.831 59.9554 260.734 60.0526C260.637 60.1498 260.54 60.2469 260.443 60.3441C260.346 60.4413 260.248 60.5384 260.151 60.6355C260.054 60.7326 259.957 60.8297 259.86 60.9268C259.763 61.0239 259.666 61.1209 259.569 61.2179C259.472 61.315 259.375 61.412 259.278 61.509C259.181 61.606 259.084 61.703 258.987 61.7999C258.89 61.8969 258.793 61.9939 258.696 62.0908C258.599 62.1877 258.502 62.2846 258.405 62.3815C258.308 62.4784 258.212 62.5753 258.115 62.6722C258.018 62.769 257.921 62.8659 257.824 62.9627C257.727 63.0595 257.63 63.1563 257.534 63.2531C257.437 63.3499 257.34 63.4467 257.243 63.5435C257.147 63.6402 257.05 63.737 256.953 63.8337C256.856 63.9304 256.76 64.0271 256.663 64.1238C256.566 64.2205 256.47 64.3172 256.373 64.4139C256.276 64.5106 256.18 64.6072 256.083 64.7039C255.986 64.8005 255.89 64.8971 255.793 64.9938C255.696 65.0904 255.6 65.187 255.503 65.2836C255.407 65.3801 255.31 65.4767 255.214 65.5733C255.117 65.6698 255.02 65.7664 254.924 65.8629C254.827 65.9595 254.731 66.056 254.634 66.1525C254.538 66.249 254.441 66.3455 254.345 66.442C254.248 66.5385 254.152 66.6349 254.055 66.7314C253.959 66.8278 253.863 66.9243 253.766 67.0207C253.67 67.1172 253.573 67.2136 253.477 67.31C253.38 67.4064 253.284 67.5028 253.188 67.5992C253.091 67.6956 252.995 67.792 252.898 67.8884C252.802 67.9847 252.706 68.0811 252.609 68.1774C252.513 68.2738 252.417 68.3701 252.32 68.4665C252.224 68.5628 252.128 68.6591 252.031 68.7554C251.935 68.8517 251.839 68.948 251.742 69.0443C251.646 69.1406 251.55 69.2369 251.454 69.3332C251.357 69.4295 251.261 69.5257 251.165 69.622C251.069 69.7182 250.972 69.8145 250.876 69.9107C250.78 70.007 250.684 70.1032 250.587 70.1994C250.491 70.2957 250.395 70.3919 250.299 70.4881C250.202 70.5843 250.106 70.6805 250.01 70.7767C249.914 70.8729 249.818 70.9691 249.722 71.0653C249.625 71.1615 249.529 71.2577 249.433 71.3538C249.337 71.45 249.241 71.5462 249.144 71.6423C249.048 71.7385 248.952 71.8346 248.856 71.9308C248.76 72.0269 248.664 72.1231 248.568 72.2192C248.471 72.3154 248.375 72.4115 248.279 72.5076C248.183 72.6038 248.087 72.6999 247.991 72.796C247.895 72.8921 247.799 72.9882 247.702 73.0843C247.606 73.1805 247.51 73.2766 247.414 73.3727C247.318 73.4688 247.222 73.5649 247.126 73.661C247.03 73.7571 246.934 73.8532 246.838 73.9493C246.741 74.0453 246.645 74.1414 246.549 74.2375C246.453 74.3336 246.357 74.4297 246.261 74.5258C246.165 74.6218 246.069 74.7179 245.973 74.814C245.877 74.9101 245.781 75.0062 245.685 75.1022C245.588 75.1983 245.492 75.2944 245.396 75.3904C245.3 75.4865 245.204 75.5826 245.108 75.6787C245.012 75.7747 244.916 75.8708 244.82 75.9669C244.724 76.0629 244.628 76.159 244.532 76.2551C244.436 76.3511 244.34 76.4472 244.244 76.5433C244.147 76.6393 244.051 76.7354 243.955 76.8315C243.859 76.9275 243.763 77.0236 243.667 77.1197C243.571 77.2157 243.475 77.3118 243.379 77.4079C243.283 77.5039 243.187 77.6 243.091 77.6961C242.995 77.7922 242.899 77.8882 242.802 77.9843C242.706 78.0804 242.61 78.1765 242.514 78.2726C242.418 78.3686 242.322 78.4647 242.226 78.5608C242.13 78.6569 242.034 78.753 241.938 78.8491C241.842 78.9452 241.746 79.0413 241.649 79.1374C241.553 79.2335 241.457 79.3296 241.361 79.4257C241.265 79.5218 241.169 79.6179 241.073 79.714C240.977 79.8102 240.881 79.9063 240.784 80.0024C240.688 80.0985 240.592 80.1946 240.496 80.2908C240.4 80.3869 240.304 80.4831 240.208 80.5792C240.111 80.6753 240.015 80.7715 239.919 80.8676C239.823 80.9638 239.727 81.06 239.631 81.1561C239.534 81.2523 239.438 81.3485 239.342 81.4446C239.246 81.5408 239.15 81.637 239.054 81.7332C238.957 81.8294 238.861 81.9256 238.765 82.0218C238.669 82.118 238.573 82.2142 238.476 82.3104C238.38 82.4067 238.284 82.5029 238.188 82.5991C238.091 82.6954 237.995 82.7916 237.899 82.8878C237.803 82.9841 237.706 83.0804 237.61 83.1766C237.514 83.2729 237.418 83.3692 237.321 83.4655C237.225 83.5617 237.129 83.658 237.032 83.7543C236.936 83.8506 236.84 83.947 236.744 84.0433C236.647 84.1396 236.551 84.2359 236.455 84.3323C236.358 84.4286 236.262 84.525 236.165 84.6213C236.069 84.7177 235.973 84.814 235.876 84.9104C235.78 85.0068 235.684 85.1032 235.587 85.1996C235.491 85.296 235.394 85.3924 235.298 85.4888C235.202 85.5853 235.105 85.6817 235.009 85.7782C234.912 85.8746 234.816 85.9711 234.719 86.0675C234.623 86.164 234.526 86.2605 234.43 86.357C234.333 86.4535 234.237 86.55 234.14 86.6465C234.044 86.743 233.947 86.8396 233.851 86.9361C233.754 87.0327 233.658 87.1292 233.561 87.2258C233.464 87.3224 233.368 87.419 233.271 87.5156C233.175 87.6122 233.078 87.7088 232.981 87.8054C232.885 87.902 232.788 87.9987 232.691 88.0953C232.595 88.192 232.498 88.2887 232.401 88.3854C232.305 88.482 232.208 88.5787 232.111 88.6755C232.015 88.7722 231.918 88.8689 231.821 88.9657C231.724 89.0624 231.628 89.1592 231.531 89.2559C231.434 89.3527 231.337 89.4495 231.24 89.5463C231.144 89.6431 231.047 89.74 230.95 89.8368C230.853 89.9337 230.756 90.0305 230.659 90.1274C230.563 90.2243 230.466 90.3212 230.369 90.4181C230.272 90.515 230.175 90.6119 230.078 90.7089C229.981 90.8058 229.884 90.9028 229.787 90.9998C229.69 91.0968 229.593 91.1938 229.496 91.2908C229.399 91.3878 229.302 91.4848 229.205 91.5819C229.108 91.6789 229.011 91.776 228.914 91.8731C228.817 91.9702 228.719 92.0673 228.622 92.1645C228.525 92.2616 228.428 92.3587 228.331 92.4559C228.234 92.5531 228.137 92.6503 228.039 92.7475C227.942 92.8447 227.845 92.9419 227.748 93.0392C227.65 93.1364 227.553 93.2337 227.456 93.331C227.358 93.4283 227.261 93.5256 227.164 93.623C227.067 93.7203 226.969 93.8176 226.872 93.915C226.774 94.0124 226.677 94.1098 226.58 94.2072C226.482 94.3047 226.385 94.4021 226.287 94.4996C226.19 94.597 226.092 94.6945 225.995 94.792C225.897 94.8896 225.8 94.9871 225.702 95.0846C225.605 95.1822 225.507 95.2798 225.409 95.3774C225.312 95.475 225.214 95.5726 225.117 95.6703C225.019 95.7679 224.921 95.8656 224.823 95.9633C224.726 96.061 224.628 96.1587 224.53 96.2565C224.433 96.3542 224.335 96.452 224.237 96.5498C224.139 96.6476 224.041 96.7454 223.944 96.8433C223.846 96.9411 223.748 97.039 223.65 97.1369C223.552 97.2348 223.454 97.3327 223.356 97.4306C223.258 97.5286 223.16 97.6266 223.062 97.7246C222.964 97.8226 222.866 97.9206 222.768 98.0187C222.67 98.1167 222.572 98.2148 222.474 98.3129C222.376 98.411 222.278 98.5091 222.179 98.6073C222.081 98.7055 221.983 98.8037 221.885 98.9019C221.787 99.0001 221.688 99.0983 221.59 99.1966C221.492 99.2949 221.394 99.3932 221.295 99.4915C221.197 99.5898 221.099 99.6882 221 99.7866C220.902 99.885 220.803 99.9834 220.705 100.082C220.607 100.18 220.508 100.279 220.41 100.377C220.311 100.476 220.213 100.574 220.114 100.673C220.015 100.771 219.917 100.87 219.818 100.969C219.72 101.067 219.621 101.166 219.522 101.265C219.424 101.363 219.325 101.462 219.226 101.561C219.127 101.659 219.029 101.758 218.93 101.857C218.831 101.956 218.732 102.055 218.633 102.154C218.534 102.252 218.435 102.351 218.337 102.45C218.238 102.549 218.139 102.648 218.04 102.747C217.941 102.846 217.842 102.945 217.743 103.044C217.644 103.143 217.544 103.242 217.445 103.342C217.346 103.441 217.247 103.54 217.148 103.639C217.049 103.738 216.949 103.837 216.85 103.937C216.751 104.036 216.652 104.135 216.552 104.235C216.453 104.334 216.354 104.433 216.254 104.533C216.155 104.632 216.055 104.731 215.956 104.831C215.856 104.93 215.757 105.03 215.657 105.129C215.558 105.229 215.458 105.329 215.359 105.428C215.259 105.528 215.159 105.627 215.06 105.727C214.96 105.827 214.86 105.926 214.761 106.026C214.661 106.126 214.561 106.226 214.461 106.326C214.361 106.425 214.262 106.525 214.162 106.625C214.062 106.725 213.962 106.825 213.862 106.925C213.762 107.025 213.662 107.125 213.562 107.225C213.462 107.325 213.362 107.425 213.262 107.525C213.161 107.625 213.061 107.725 212.961 107.826C212.861 107.926 212.761 108.026 212.66 108.126C212.56 108.227 212.46 108.327 212.359 108.427C212.259 108.528 212.159 108.628 212.058 108.728C211.958 108.829 211.857 108.929 211.757 109.03C211.656 109.13 211.556 109.231 211.455 109.332C211.355 109.432 211.254 109.533 211.153 109.633C211.053 109.734 210.952 109.835 210.851 109.936C210.75 110.036 210.65 110.137 210.549 110.238C210.448 110.339 210.347 110.44 210.246 110.541C210.145 110.641 210.044 110.742 209.943 110.843C209.842 110.944 209.741 111.045 209.64 111.147C209.539 111.248 209.438 111.349 209.337 111.45C209.236 111.551 209.135 111.652 209.033 111.754C208.932 111.855 208.831 111.956 208.729 112.057C208.628 112.159 208.527 112.26 208.425 112.362C208.324 112.463 208.222 112.564 208.121 112.666C208.019 112.767 207.918 112.869 207.816 112.971C207.715 113.072 207.613 113.174 207.511 113.276C207.41 113.377 207.308 113.479 207.206 113.581C207.104 113.683 207.002 113.784 206.901 113.886C206.799 113.988 206.697 114.09 206.595 114.192C206.493 114.294 206.391 114.396 206.289 114.498C206.187 114.6 206.085 114.702 205.982 114.804C205.88 114.907 205.778 115.009 205.676 115.111C205.574 115.213 205.471 115.315 205.369 115.418C205.267 115.52 205.164 115.623 205.062 115.725C204.959 115.827 204.857 115.93 204.754 116.032C204.652 116.135 204.549 116.237 204.447 116.34C204.344 116.443 204.241 116.545 204.139 116.648C204.036 116.751 203.933 116.854 203.83 116.956C203.728 117.059 203.625 117.162 203.522 117.265C203.419 117.368 203.316 117.471 203.213 117.574C203.11 117.677 203.007 117.78 202.904 117.883C202.801 117.986 202.697 118.089 202.594 118.193C202.491 118.296 202.388 118.399 202.284 118.502C202.181 118.606 202.078 118.709 201.974 118.812C201.871 118.916 201.767 119.019 201.664 119.123C201.56 119.226 201.457 119.33 201.353 119.434C201.25 119.537 201.146 119.641 201.042 119.745C200.938 119.848 200.835 119.952 200.731 120.056C200.627 120.16 200.523 120.264 200.419 120.368C200.315 120.472 200.211 120.576 200.107 120.68C200.003 120.784 199.899 120.888 199.795 120.992C199.691 121.096 199.587 121.2 199.482 121.304C199.378 121.409 199.274 121.513 199.169 121.617C199.065 121.722 198.961 121.826 198.856 121.931C198.752 122.035 198.647 122.14 198.543 122.244C198.438 122.349 198.333 122.453 198.229 122.558C198.124 122.663 198.019 122.768 197.914 122.872C197.81 122.977 197.705 123.082 197.6 123.187C197.495 123.292 197.39 123.397 197.285 123.502C197.18 123.607 197.075 123.712 196.97 123.817C196.864 123.922 196.759 124.028 196.654 124.133C196.549 124.238 196.443 124.343 196.338 124.449C196.233 124.554 196.127 124.66 196.022 124.765C195.916 124.871 195.811 124.976 195.705 125.082C195.6 125.187 195.494 125.293 195.388 125.399C195.282 125.504 195.177 125.61 195.071 125.716C194.965 125.822 194.859 125.928 194.753 126.034C194.647 126.14 194.541 126.246 194.435 126.352C194.329 126.458 194.223 126.564 194.117 126.67C194.01 126.776 193.904 126.883 193.798 126.989C193.692 127.095 193.585 127.202 193.479 127.308C193.372 127.414 193.266 127.521 193.159 127.628C193.053 127.734 192.946 127.841 192.839 127.947C192.733 128.054 192.626 128.161 192.519 128.268C192.412 128.374 192.306 128.481 192.199 128.588C192.092 128.695 191.985 128.802 191.878 128.909C191.771 129.016 191.663 129.123 191.556 129.231C191.449 129.338 191.342 129.445 191.235 129.552C191.127 129.66 191.02 129.767 190.912 129.874C190.805 129.982 190.698 130.089 190.59 130.197C190.482 130.304 190.375 130.412 190.267 130.52C190.159 130.627 190.052 130.735 189.944 130.843C189.836 130.951 189.728 131.059 189.62 131.167C189.512 131.275 189.404 131.383 189.296 131.491C189.188 131.599 189.08 131.707 188.972 131.815C188.864 131.923 188.755 132.032 188.647 132.14C188.539 132.248 188.43 132.357 188.322 132.465C188.213 132.574 188.105 132.682 187.996 132.791C187.888 132.899 187.779 133.008 187.67 133.117C187.561 133.225 187.453 133.334 187.344 133.443C187.235 133.552 187.126 133.661 187.017 133.77C186.908 133.879 186.799 133.988 186.69 134.097C186.581 134.206 186.471 134.316 186.362 134.425C186.253 134.534 186.143 134.643 186.034 134.753C185.925 134.862 185.815 134.972 185.705 135.081C185.596 135.191 185.486 135.3 185.377 135.41C185.267 135.52 185.157 135.63 185.047 135.739C184.937 135.849 184.828 135.959 184.718 136.069C184.608 136.179 184.498 136.289 184.387 136.399C184.277 136.509 184.167 136.62 184.057 136.73C183.947 136.84 183.836 136.95 183.726 137.061C183.616 137.171 183.505 137.282 183.395 137.392C183.284 137.503 183.173 137.613 183.063 137.724C182.952 137.835 182.841 137.946 182.73 138.056C182.62 138.167 182.509 138.278 182.398 138.389C182.287 138.5 182.176 138.611 182.065 138.722C181.953 138.833 181.842 138.945 181.731 139.056C181.62 139.167 181.508 139.278 181.397 139.39C181.285 139.501 181.174 139.613 181.062 139.724C180.951 139.836 180.839 139.948 180.728 140.059C180.616 140.171 180.504 140.283 180.392 140.395C180.28 140.507 180.168 140.618 180.056 140.73C179.944 140.842 179.832 140.955 179.72 141.067C179.608 141.179 179.496 141.291 179.383 141.403C179.271 141.516 179.159 141.628 179.046 141.741C178.934 141.853 178.821 141.966 178.709 142.078C178.596 142.191 178.483 142.304 178.37 142.416C178.258 142.529 178.145 142.642 178.032 142.755C177.919 142.868 177.806 142.981 177.693 143.094C177.58 143.207 177.467 143.32 177.353 143.433C177.24 143.547 177.127 143.66 177.013 143.773C176.9 143.887 176.787 144 176.673 144.114C176.559 144.227 176.446 144.341 176.332 144.455C176.218 144.568 176.105 144.682 175.991 144.796C175.877 144.91 175.763 145.024 175.649 145.138C175.535 145.252 175.421 145.366 175.306 145.48C175.192 145.595 175.078 145.709 174.964 145.823C174.849 145.937 174.735 146.052 174.62 146.166C174.506 146.281 174.391 146.396 174.277 146.51C174.162 146.625 174.047 146.74 173.932 146.855C173.817 146.969 173.703 147.084 173.588 147.199C173.473 147.314 173.357 147.429 173.242 147.545C173.127 147.66 173.012 147.775 172.897 147.89C172.781 148.006 172.666 148.121 172.55 148.237C172.435 148.352 172.319 148.468 172.204 148.583C172.088 148.699 171.972 148.815 171.856 148.931C171.74 149.046 171.625 149.162 171.509 149.278C171.393 149.394 171.276 149.51 171.16 149.627C171.044 149.743 170.928 149.859 170.811 149.975C170.695 150.092 170.579 150.208 170.462 150.325C170.346 150.441 170.229 150.558 170.112 150.674C169.996 150.791 169.879 150.908 169.762 151.025C169.645 151.142 169.528 151.258 169.411 151.375C169.294 151.493 169.177 151.61 169.06 151.727C168.943 151.844 168.825 151.961 168.708 152.079C168.591 152.196 168.473 152.314 168.356 152.431C168.238 152.549 168.121 152.666 168.003 152.784C167.885 152.902 167.767 153.019 167.649 153.137C167.532 153.255 167.414 153.373 167.295 153.491C167.177 153.609 167.059 153.728 166.941 153.846C166.823 153.964 166.704 154.082 166.586 154.201C166.468 154.319 166.349 154.438 166.23 154.556C166.112 154.675 165.993 154.794 165.874 154.912C165.756 155.031 165.637 155.15 165.518 155.269C165.399 155.388 165.28 155.507 165.16 155.626C165.041 155.745 164.922 155.865 164.803 155.984C164.683 156.103 164.564 156.223 164.445 156.342C164.325 156.462 164.205 156.581 164.086 156.701C163.966 156.821 163.846 156.941 163.726 157.06C163.606 157.18 163.486 157.3 163.366 157.42C163.246 157.54 163.126 157.661 163.006 157.781C162.886 157.901 162.765 158.021 162.645 158.142C162.525 158.262 162.404 158.383 162.283 158.503C162.163 158.624 162.042 158.745 161.921 158.866C161.8 158.986 161.68 159.107 161.559 159.228C161.438 159.349 161.316 159.47 161.195 159.592C161.074 159.713 160.953 159.834 160.831 159.955C160.71 160.077 160.589 160.198 160.467 160.32C160.345 160.441 160.224 160.563 160.102 160.685C159.98 160.807 159.858 160.928 159.736 161.05C159.615 161.172 159.492 161.294 159.37 161.416C159.248 161.539 159.126 161.661 159.004 161.783C158.881 161.905 158.759 162.028 158.636 162.15C158.514 162.273 158.391 162.396 158.268 162.518C158.146 162.641 158.023 162.764 157.9 162.887C157.777 163.01 157.654 163.133 157.531 163.256L178.744 184.469ZM159.905 244.293L182.331 178.716L153.945 169.009L131.519 234.586L159.905 244.293ZM219.34 216.424L154.914 241.104L165.646 269.119L230.072 244.438L219.34 216.424ZM156.861 240.507L156.545 240.58L163.384 269.791L163.699 269.717L156.861 240.507ZM130.529 238.337C126.894 257.615 144.283 274.262 163.384 269.791L156.545 240.58C158.559 240.109 160.393 241.864 160.01 243.897L130.529 238.337ZM373.82 53.033C375.772 54.9856 375.772 58.1515 373.82 60.1041L395.033 81.3173C408.701 67.6489 408.701 45.4882 395.033 31.8198L373.82 53.033ZM160.01 243.897C159.984 244.031 159.95 244.164 159.905 244.293L131.519 234.586C131.1 235.811 130.769 237.065 130.529 238.337L160.01 243.897ZM366.749 3.53553C353.065 -10.1478 330.889 -10.1025 317.236 3.5509L338.449 24.7641C340.417 22.7965 343.598 22.8111 345.536 24.7487L366.749 3.53553Z" fill="black" mask="url(#path-2-inside-1)"/>
    </g>
  </g>
</svg>
